<?xml version="1.0" encoding="utf-8"?>
<svg version="1.1" id="Layer_1" xmlns="http://www.w3.org/2000/svg" xmlns:xlink="http://www.w3.org/1999/xlink" x="0px" y="0px"
	 viewBox="0 0 256 256" style="enable-background:new 0 0 256 256;" xml:space="preserve">
<path d="M205.1,215.5H50.9c-5.8,0-10.4-4.7-10.4-10.4v-36.1c0-5.8,4.7-10.4,10.4-10.4h154.1c5.8,0,10.4,4.7,10.4,10.4v36.1
	C215.5,210.8,210.8,215.5,205.1,215.5z"/>
<path d="M88.5,76.5c0.4-3.3,3.5-5.6,6.7-5.2s5.6,3.5,5.2,6.7l-9,67.9h105.1l-10.6-79.5C184.2,54.2,173.7,45,161.3,45H94.7
	c-12.4,0-23,9.2-24.6,21.5L59.5,146h19.8L88.5,76.5z"/>
</svg>
